<svg
  [attr.width]="size"
  [attr.height]="size"
  [attr.fill]="color"
  version="1.1"
  id="Capa_1"
  xmlns="http://www.w3.org/2000/svg"
  xmlns:xlink="http://www.w3.org/1999/xlink"
  viewBox="0 0 162.433 162.433"
  xml:space="preserve"
>
  <g>
    <path
      d="M162.216,80.509c-25.663,0.708-51.337-0.788-76.99,0.036c12.667-5.427,25.957-9.519,38.059-16.158
		c0.22-0.12,0.067-0.504-0.173-0.411c-12.4,4.809-25.015,9.148-37.317,14.216c14.586-15.583,30.864-29.603,44.278-46.247
		c0.177-0.22-0.113-0.531-0.318-0.317C115.16,46.845,99.472,60.987,84.936,76.254c4.918-12.362,9.09-25.035,13.739-37.494
		c0.09-0.241-0.293-0.395-0.411-0.173c-6.512,12.239-10.438,25.642-15.739,38.427c-0.989-25.59,1.028-51.283-1.565-76.797
		c-0.028-0.282-0.457-0.294-0.449,0c0.71,25.749-0.799,51.509,0.044,77.248C75.771,64.364,70.1,51.576,64.968,38.613
		c-0.105-0.264-0.505-0.168-0.434,0.119c3.312,13.233,9.235,25.631,13.839,38.452c-14.78-15.624-30.806-30.031-45.695-45.555
		c-0.205-0.214-0.495,0.097-0.318,0.317c13.32,16.527,29.462,30.467,43.97,45.92c-12.018-4.732-24.313-8.798-36.407-13.312
		c-0.24-0.089-0.396,0.292-0.173,0.411c12.133,6.456,25.409,10.37,38.095,15.602c-25.865-0.869-51.753,0.656-77.628-0.058
		c-0.295-0.008-0.282,0.42,0,0.449c24.809,2.522,49.786,0.687,74.675,1.492c-12.187,4.57-24.129,9.833-36.225,14.622
		c-0.264,0.104-0.168,0.505,0.119,0.434c13.429-3.361,25.997-9.412,39.022-14.044c-15.809,14.904-30.35,31.104-46.032,46.146
		c-0.213,0.205,0.098,0.495,0.318,0.317c17.146-13.82,31.509-30.678,47.665-45.596c-4.464,13.071-10.347,25.708-13.534,39.169
		c-0.067,0.287,0.332,0.386,0.434,0.119c4.513-11.833,9.471-23.529,13.804-35.437c-0.627,24.67,0.729,49.358,0.049,74.036
		c-0.008,0.294,0.421,0.282,0.449,0c2.525-24.842,0.68-49.852,1.493-74.773c4.967,11.976,8.957,24.407,15.199,35.787
		c0.121,0.22,0.504,0.067,0.411-0.173c-4.879-12.582-9.279-25.382-14.442-37.855c15.773,14.699,29.905,31.174,46.717,44.724
		c0.221,0.178,0.531-0.113,0.318-0.317c-15.838-15.191-30.513-31.565-46.503-46.591c13.55,4.512,26.589,10.692,40.509,13.99
		c0.286,0.068,0.386-0.332,0.119-0.434c-12.144-4.633-24.141-9.737-36.373-14.148c24.603-0.736,49.288,1.026,73.809-1.467
		C162.499,80.93,162.511,80.501,162.216,80.509z"
    />
    <path
      d="M61.422,28.738c-0.566-0.005,0.245,0.044,0.227,0.042c0.057,0.005,0.229-0.012,0.332-0.024
		c0.545-0.072,0.847-0.372,0.915-0.919c0.066-0.538-0.125-1.039-0.516-1.416c-0.628-0.607-1.683-0.49-2.131,0.275
		C59.725,27.59,60.396,28.729,61.422,28.738z"
    />
    <path
      d="M61.981,28.756c-0.002,0-0.004,0.001-0.006,0.001C62.104,28.741,62.067,28.747,61.981,28.756z"
    />
    <path
      d="M30.32,61.573c1.883,0,1.883-2.92,0-2.92S28.437,61.573,30.32,61.573z"
    />
    <path
      d="M31.109,100.619c-0.228-0.045-0.454-0.079-0.686-0.071c-0.778,0.028-1.544,0.813-1.243,1.631
		c0.103,0.113,0.13,0.235,0.081,0.367c-0.022,0.135-0.023,0.259-0.012,0.395c0.04,0.469,0.729,0.632,0.871,0.146
		c0.402,0.126,0.938-0.033,1.214-0.338c0.104-0.103,0.119-0.125,0.044-0.064C32.117,102.178,32.145,100.826,31.109,100.619z"
    />
    <path
      d="M61.354,133.72c-0.082,0.007-0.163,0.007-0.245,0.003c-0.06-0.008-0.147-0.02-0.287-0.037
		c-0.164,0.016-0.328,0.037-0.492,0.062c-0.029,0.009-0.456,0.082-0.173,0.056c-0.751,0.071-1.385,0.577-1.385,1.385
		c0,0.938,0.88,1.525,1.754,1.336c0.462-0.1,0.874-0.283,1.22-0.611c0.357-0.34,0.426-0.857,0.484-1.317
		C62.288,134.137,61.788,133.699,61.354,133.72z"
    />
    <path
      d="M102.941,131.071c-2.144,0-2.144,3.324,0,3.324C105.085,134.396,105.085,131.071,102.941,131.071z"
    />
    <path
      d="M133.978,97.529c-0.143-0.11-0.285-0.22-0.428-0.33c-1.01-0.778-2.434,0.29-2.434,1.396c0,1.107,1.424,2.175,2.434,1.396
		c0.143-0.11,0.285-0.22,0.428-0.33C134.762,99.057,134.762,98.134,133.978,97.529z"
    />
    <path
      d="M132.662,60.493c0.155-0.102,0.293-0.23,0.44-0.423c0.218-0.285,0.22-0.872,0-1.156c-0.49-0.635-1.416-0.98-2.174-0.536
		c-0.632,0.37-0.791,1.06-0.717,1.735C130.377,61.617,132.198,61.73,132.662,60.493z"
    />
    <path
      d="M102.941,29.364c1.97,0,1.97-3.055,0-3.055C100.971,26.31,100.971,29.364,102.941,29.364z"
    />
  </g>
</svg>
